# xmcd
#
# Track frame offsets: 
#        150
#        12504
#        25900
#        40144
#        53047
#        66599
#        79945
#        93038
#        107902
#        120714
#        133397
#        147245
#        162685
#        175575
#        188350
#        201937
#        216014
#        231441
#
# Disc length: 3266 seconds
#
# Revision: 1
# Processed by: cddbd v1.5.2PL0 Copyright (c) Steve Scherf et al.
# Submitted via: ExactAudioCopyFreeDBPlugin 1.0
#
DISCID=050cc012
DTITLE=Various Artist - Blues Power CD3
DYEAR=2008
DGENRE=Blues
TTITLE0=Muddy Waters - I can't be satisfied
TTITLE1=Arthur Crudup - Rock me mama
TTITLE2=John Lee Hooker - Boogie Chillen
TTITLE3=Lightnin' Hopkins - Whiskey headed woman
TTITLE4=Memphis Minnie - Fashion Plate Daddy
TTITLE5=Bukka White - Black Train Blues
TTITLE6=Robert Lockwood - Take a little walk with me
TTITLE7=Big Bill Broonzy - Gettin older every day
TTITLE8=Buddy Woods with Wampus Cats - Muscat Hill Blues
TTITLE9=Robert Johnson - Travellin' Riverside Blues
TTITLE10=Buddy Moss - My baby won't pay me no mind
TTITLE11=Casey Bill Weldon - Two timin' women
TTITLE12=Browne Mc Ghee - Goodbye now
TTITLE13=Charley Patton - High Sheriff Blues
TTITLE14=Joshua White - Little brother blues
TTITLE15=Tampa Red - King Fish Blues
TTITLE16=Son House - Shetland Pony Blues
TTITLE17=Blind Boy Fuller - My brownskin sugar plum
EXTD=
EXTT0=
EXTT1=
EXTT2=
EXTT3=
EXTT4=
EXTT5=
EXTT6=
EXTT7=
EXTT8=
EXTT9=
EXTT10=
EXTT11=
EXTT12=
EXTT13=
EXTT14=
EXTT15=
EXTT16=
EXTT17=
PLAYORDER=
